Patient4_TMGait_0pt4_03_right_19_EMG.mot
version=1
nRows=33
nColumns=33
inDegrees=no
endheader
time	1LAddLong	2LGlutMax	3LGlutMed	4LIliopsoas	5LSemiMemb	6LBicFemLong	7LRecFem	8LVastMed	9LVastLat	10LGasMed	11LTibAnt	12lTibPost	13LPeroneusLong	14LSol	15LExtDigLong	16LFlexDigLong	17RAddLong	18RGlutMax	19RGlutMed	20RIliopsoas	21RSemiMemb	22RBicFemLong	23RRecFem	24RVastMed	25RVastLat	26RGasMed	27RTibAnt	28RTibPost	29RPeroneusLong	30RSol	31RExtDigLong	32RFlexDigLong
25.56	0.005646	-0.096741	0.057373	0.01236	0.010834	-0.024567	0.14954	-0.00351	-0.014343	-0.28946	-0.042725	-0.14847	-0.01297	-0.015106	0.10834	0.20477	0.004883	-0.059967	0.121	-0.19928	0.042877	0.39642	0.027161	-0.055389	0.012512	-0.007782	0.04837	-0.008087	0.1796	-0.022888	0	0.004425
25.561	0.002899	-0.098877	0.091705	0.016479	0.012054	-0.032959	0.14267	-0.001526	-0.041504	0.1152	-0.024567	-0.079498	-0.088196	-0.014343	0.028076	0.3096	0.018616	-0.023193	0.22964	-0.14847	0.057068	0.3479	0.054321	-0.058594	0.007477	-0.000153	0.10803	-0.014648	0.055237	0.005646	0.001373	0.019531
25.562	0.006714	-0.049896	0.08255	0.010681	0.009308	-0.041199	0.11536	0.003662	-0.052948	0.18662	-0.029449	0.007782	-0.076294	-0.29663	-0.045776	-0.4126	0.034332	0.030823	0.084229	-0.10132	0.083923	0.30121	0.036163	-0.039673	0.00824	-0.007782	0.1445	-0.007324	-0.017853	0.009613	0.002289	0.013428
25.563	0.002594	-0.058289	0.11139	0.005188	0.015869	-0.057983	0.016327	0.006866	-0.049744	0.25391	0.015869	-0.010834	-0.056458	-0.093842	-0.077972	0.2446	0.010376	-0.049286	0.25879	0.061646	-0.000305	0.31006	0.022583	-0.033569	0.043945	-0.003204	0.1004	-0.009308	-0.10391	0.01709	0.00061	0.016937
25.564	0.002747	-0.088501	0.085449	0.014191	0.008545	-0.060883	-0.021667	0.004272	-0.016327	0.58121	0.07843	-0.084381	0.065613	0.2626	-0.073547	0.12146	0.007477	-0.081329	0.22247	0.1828	-0.093079	0.36529	0.02182	-0.078278	0.013428	-0.00061	0.083771	-0.006561	-0.095673	-0.005035	-0.003357	0.024109
25.565	-0.000458	-0.062103	0.062408	0.001068	0.010986	-0.061951	-0.013733	0.00473	-0.025635	0.56488	0.078125	-0.018463	0.18921	0.18158	-0.041199	0.087433	-0.000916	-0.054779	0.37415	0.12589	0.013428	0.37018	-0.024872	-0.031128	0.036774	0.002289	0.065613	-0.013123	-0.028839	0.009155	-0.000916	0.014343
25.566	0.002594	-0.042877	0.082703	-0.006104	0.014801	-0.042725	0.097504	0.000763	0.007935	0.14023	0.027313	0.12604	0.19699	0.082397	-0.037842	-0.001678	-0.022278	-0.092621	0.07309	0.12894	-0.092621	0.39612	-0.057831	-0.019379	0.026245	-0.00351	0.045929	-0.010986	0.000916	0.005188	0.001526	0.016937
25.567	-0.001373	-0.045471	0.082245	0.001221	0.009155	0.003662	0.093842	0.000153	0.020447	-0.043335	0.019989	-0.088196	0.10239	-0.31677	-0.002136	0.00351	-0.024109	-0.10071	-0.28412	0.083618	-0.09613	0.4541	0.008392	-0.0383	0.032196	-0.001221	0.02655	-0.007782	0.052338	-0.002899	-0.000916	0.010681
25.568	-0.000153	-0.06073	0.066223	0.003052	0.019226	0.030823	0.070801	0.001221	0.073853	0.11932	0.02655	-0.19363	0.039368	-0.29266	0.047607	0.040588	-0.06134	-0.12466	-0.39154	-0.000153	0.13763	0.4837	-0.02243	0.035858	0.033112	-0.003662	0.029449	-0.007629	0.074768	0.017395	-0.000153	0.003662
25.569	0.011444	-0.086212	0.030518	0.003357	0.019073	-0.006561	-0.014343	-0.00351	0.16251	0.14557	-0.002747	0.005951	0.054779	0.045013	0.048981	0.043793	-0.032654	-0.15289	-0.42145	-0.036774	-0.018005	0.4306	-0.056763	-0.009918	0.01709	-0.005798	0.02533	-0.005341	0.054474	0.0177	0.00885	-0.001526
25.57	0.004578	-0.12466	-0.058899	0.004578	0.018921	0.024414	-0.029144	-0.005798	0.1976	0.17975	-0.057831	-0.00946	0.1239	0.2803	0.009155	-0.029755	-0.012054	-0.18936	-0.013275	-0.039978	-0.028687	0.38345	-0.002594	-0.019684	0.029602	-0.004425	0.010986	-0.013123	0.059662	-0.008545	-0.000305	0.004425
25.571	0.004578	-0.1033	-0.04364	0.006866	0.018921	0.046997	-0.002594	0.004272	0.23453	-0.57037	-0.13107	0.045929	0.12238	0.097198	-0.007935	-0.040436	-0.01236	-0.13397	-0.022736	-0.15427	0.032043	0.32989	-0.041199	0.048981	0.026398	-0.001221	-0.013885	-0.009308	0.13855	-0.001984	0.001221	-0.00061
25.572	0.008392	-0.092621	-0.02243	0.005646	0.011902	0.024872	0.006866	0.029755	0.21896	-0.49133	-0.080109	-0.003204	-0.039063	-0.045471	-0.034943	0.056915	-0.01358	-0.10727	0.000916	-0.12863	0.045776	0.26291	-0.022583	0.021515	0.007324	-0.007019	0.011749	-0.00946	0.052643	-0.009003	-0.000458	0.001678
25.573	0.003662	-0.081635	-0.013123	0.018005	0.015564	0.017395	0.031586	0.067749	0.1973	-0.23789	0.14023	-0.019073	-0.063934	-0.22659	-0.082092	-0.005341	-0.016785	-0.12054	-0.19333	-0.096893	0.045776	0.27542	-0.03006	0.018158	0.009766	-0.008698	0.018158	-0.009308	0.00885	0.030518	-0.000458	-0.00351
25.574	0.002441	-0.092773	-0.012665	-0.001373	0.018921	0.037079	0.043182	-0.006714	0.17364	-0.26367	0.34622	-0.048218	-0.066528	-0.038452	0.031281	0.084839	-0.012817	-0.088501	-0.54916	0.015259	0.001984	0.24796	-0.014954	-0.02594	-0.006104	-0.00885	0.005951	-0.010223	0.036011	0.015411	0.000916	-0.003357
25.575	0.008087	-0.10086	-0.002441	-0.001678	0.011139	0.052643	0.062103	-0.001526	0.04837	-0.20416	0.58044	-0.024719	-0.080414	0.48355	0.10223	-0.017395	0.003815	-0.095673	-1.0185	0.15289	0.005493	0.25818	0.014191	-0.046844	-0.013275	-0.008698	0.007629	-0.016022	0.069122	0.00824	-0.001831	-0.001831
25.576	-0.002289	-0.054321	0.000916	-0.001373	0.014343	0.052185	0.092468	0.000153	-0.35111	-0.21057	0.13092	-0.014801	0.025177	0.34012	0.20432	0.039063	0.019226	-0.1239	-0.62683	0.14465	-0.046082	0.25055	0.015106	-0.073853	-0.004883	-0.012054	0.011902	-0.014343	0.059052	0.005035	0.001373	-0.003967
25.577	0.001526	-0.062714	0.035248	-0.010834	0.013123	0.068207	0.10834	-0.00412	-0.33722	-0.11993	-0.33035	-0.011902	0.005798	0.40054	1.0654	0.043793	0.024719	-0.089874	-0.11505	0.007629	-0.23773	0.21683	-0.021057	-0.074158	-0.014191	-0.015259	0.016022	-0.011292	0.047455	0.002289	0.000916	-0.002747
25.578	0.003967	-0.095215	0.028839	0.017242	0.010071	0.056152	0.083008	-0.002899	-0.1767	-0.088959	-0.2449	-0.031281	0.015564	0.29022	-0.090637	0.023956	0.028534	-0.080872	0.41428	0.029144	-0.38711	0.1683	-0.013885	-0.064087	0.004272	-0.014648	0.007019	-0.009308	0.04837	-0.002441	0	-0.007324
25.579	0.001984	-0.073547	-0.024109	0.024109	0.010834	0.055237	0.090179	-0.012054	-0.070801	-0.014038	-0.068207	-0.020447	0.10208	-0.10407	-0.43259	-0.38437	0.026855	-0.18814	0.4924	0.012665	-0.28397	0.10162	-0.045624	-0.050507	0.004883	-0.013733	0.00946	-0.007019	0.042572	-0.003662	0.000916	-0.013123
25.58	-0.000305	-0.061798	-0.041962	0.012665	0.004883	0.084534	0.086365	-0.002899	-0.05249	0.080261	-0.011139	-0.032806	0.13779	-0.41702	-0.41611	0.055847	0.04425	-0.18051	0.24628	-0.13825	0.20081	0.072937	-0.018768	-0.045013	-0.000763	-0.013733	0.020294	-0.013275	0.047913	0.010223	0.001068	-0.019989
25.581	0.00473	-0.075836	-0.014801	0.008087	0.011597	0.05249	0.077362	-0.006866	-0.065613	0.13855	-0.070038	-0.029449	0.093689	-0.91095	-0.15625	0.065002	0.075226	-0.18814	-0.16312	-0.16663	0.13367	-0.030212	-0.029602	-0.10437	-0.009155	-0.016479	0.001831	-0.00885	0.045319	-0.01236	0.002594	-0.014496
25.582	-0.001831	-0.06485	0.092468	0.011139	0.007935	-0.054474	0.058441	-0.005341	-0.049744	0.112	-0.1265	-0.018768	0.10574	-0.75867	-0.12497	-0.000763	0.099792	-0.19974	0.01358	-0.21774	-0.10452	-0.041351	-0.010529	-0.1265	0.002441	-0.014648	-0.00946	-0.007782	0.059509	0.00061	0.006714	-0.02121
25.583	-0.001373	-0.06546	0.072937	-0.011444	0.007935	0.064392	0.041199	0.000916	-0.013428	0.065002	-0.049133	-0.026245	0.077515	-0.30014	-0.28305	-0.024872	0.035553	-0.078583	0.14328	-0.11398	-0.024719	-0.059662	-0.038605	-0.094757	0.010223	-0.019836	-0.010834	-0.007477	0.078888	0.001068	0.000916	-0.01236
25.584	0.00412	-0.024261	0.13641	-0.01709	0.008392	0.10452	0.066528	-0.001068	0.003662	-0.077972	-0.003052	-0.018463	0.044403	0.10544	0.19089	-0.030212	-0.019836	-0.10422	-0.10452	0.19699	0.21851	-0.011597	-0.062866	-0.058441	0.019836	-0.019226	-0.016327	-0.00351	0.054932	-0.006256	0.000305	-0.02533
25.585	0.00412	-0.011444	0.027313	-0.003662	0.006409	0.1001	0.054932	0.000305	0.026855	-0.1471	0.02655	-0.018616	-0.024261	0.34347	0.020905	-0.02182	-0.065918	-0.081787	-0.47562	0.30762	0.19882	0.091858	-0.084076	0.00412	0.025787	-0.023193	0.002136	-0.00351	0.049591	0.004883	0.012817	-0.03891
25.586	0.00885	-0.045929	-0.079193	0.016479	0.008545	0.054932	0.07431	0.000916	0.030212	-0.02121	-0.11627	-0.026855	-0.009308	0.22125	-0.28641	-0.028229	-0.071259	-0.089264	-0.39627	0.25909	-0.07019	0.13794	-0.068054	0.041504	0.021973	-0.027466	0.016327	-0.007324	0.018158	-0.021057	0.003662	-0.041656
25.587	0.007477	-0.04364	-0.078125	0.018616	0.010223	-0.021667	0.09964	-0.003662	-0.007477	0.073242	-0.15228	-0.023651	-0.010834	0.011749	-0.087433	-0.032043	-0.028992	-0.057983	0.12482	0.11932	-0.19119	0.13107	0.007935	-0.061951	-0.007477	-0.024567	0.00885	-0.01297	0.067291	0.017853	0.002594	-0.047913
25.588	0.002289	-0.027466	-0.086975	0.006866	0.005188	-0.094147	0.11124	-0.004883	0.008545	0.039825	-0.083313	-0.016174	-0.013123	-0.23773	-0.068207	-0.01358	-0.017395	-0.028992	-0.16785	0.00351	-0.12283	0.068054	-0.053253	-0.011749	0.000763	-0.018005	0.009766	-0.005798	0.097046	-0.005798	0.002594	-0.053253
25.589	0.002899	-0.056915	-0.089264	-0.008392	0.01297	-0.060272	0.17487	-0.001984	-0.021973	0.023193	0.009003	-0.019073	0.025787	-0.30853	0.26306	0.000763	-0.039063	-0.065765	0.29724	-0.19638	0.065002	0.027618	-0.046997	0.001678	0.006409	-0.024872	-0.01236	-0.004272	0.098419	0.005646	0.001373	-0.053711
25.59	0.00473	-0.035095	-0.018768	-0.004578	0.010223	-0.13153	0.14893	-0.00351	-0.029907	0.023193	0.089722	-0.016022	0.010834	-0.15366	-0.070343	-0.019073	-0.031738	-0.019684	0.45441	-0.21606	0.1001	-0.068817	-0.057373	0.044861	0.017853	-0.026398	-0.016785	-0.008392	0.30334	-0.015106	0.003204	-0.058899
25.591	0.003052	-0.065765	-0.033875	0.011292	0.010834	-0.14038	0.051422	0.002441	-0.026398	0.11566	-0.035095	0.001221	0.019989	-0.04425	-0.1294	0.002289	-0.031433	-0.10407	0.21057	-0.13687	-0.030823	-0.10513	-0.11032	0.003967	0.013733	-0.023499	-0.019989	-0.003357	0.17136	-0.005188	0.003662	-0.056458
25.592	-0.005188	-0.050812	0.023651	0.01236	0.013885	-0.08606	-0.009613	0.007782	-0.007629	0.17777	-0.037842	-0.016937	0.01236	0.006256	-0.17716	-0.002441	-0.029602	-0.068054	-0.077515	-0.014801	-0.11093	0.026245	-0.037842	-0.00061	0.008698	-0.028534	-0.007935	-0.003204	-0.089264	-0.005798	-0.000916	-0.060272
